REM DIRINDEX 1\2,1\3
REM DIRNAME folder01,folder02,folder03
TITLE ""
FILE "sample sentencesTrack04.mp3" MP3
  TRACK 01 AUDIO
    TITLE "3:cjc143_2354"
    INDEX 01 00:00:00
  TRACK 02 AUDIO
    TITLE "0:"
    INDEX 01 00:00:52
  TRACK 03 AUDIO
    TITLE "3:cjc143_2355"
    INDEX 01 00:01:26
  TRACK 04 AUDIO
    TITLE "0:"
    INDEX 01 00:04:40
  TRACK 05 AUDIO
    TITLE "3:cjc143_2356"
    INDEX 01 00:05:46
  TRACK 06 AUDIO
    TITLE "0:"
    INDEX 01 00:07:72
  TRACK 07 AUDIO
    TITLE "3:cjc143_2357"
    INDEX 01 00:09:02
  TRACK 08 AUDIO
    TITLE "0:"
    INDEX 01 00:11:56
  TRACK 09 AUDIO
    TITLE "3:cjc143_2358"
    INDEX 01 00:12:65
  TRACK 10 AUDIO
    TITLE "0:"
    INDEX 01 00:14:53
  TRACK 11 AUDIO
    TITLE "3:cjc143_2359"
    INDEX 01 00:15:64
  TRACK 12 AUDIO
    TITLE "0:"
    INDEX 01 00:18:35
  TRACK 13 AUDIO
    TITLE "3:cjc143_2360"
    INDEX 01 00:19:44
  TRACK 14 AUDIO
    TITLE "0:"
    INDEX 01 00:22:09
  TRACK 15 AUDIO
    TITLE "3:cjc143_2361"
    INDEX 01 00:23:16
  TRACK 16 AUDIO
    TITLE "0:"
    INDEX 01 00:25:45
  TRACK 17 AUDIO
    TITLE "3:cjc143_2362"
    INDEX 01 00:26:52
  TRACK 18 AUDIO
    TITLE "0:"
    INDEX 01 00:29:52
  TRACK 19 AUDIO
    TITLE "3:cjc143_2363"
    INDEX 01 00:30:61
  TRACK 20 AUDIO
    TITLE "0:"
    INDEX 01 00:35:06
  TRACK 21 AUDIO
    TITLE "3:cjc143_2364"
    INDEX 01 00:36:19
  TRACK 22 AUDIO
    TITLE "0:"
    INDEX 01 00:38:71
  TRACK 23 AUDIO
    TITLE "3:cjc143_2365"
    INDEX 01 00:40:03
  TRACK 24 AUDIO
    TITLE "0:"
    INDEX 01 00:42:70
  TRACK 25 AUDIO
    TITLE "3:cjc143_2366"
    INDEX 01 00:44:01
  TRACK 26 AUDIO
    TITLE "0:"
    INDEX 01 00:45:65
  TRACK 27 AUDIO
    TITLE "3:cjc143_2367"
    INDEX 01 00:46:72
  TRACK 28 AUDIO
    TITLE "0:"
    INDEX 01 00:49:45
  TRACK 29 AUDIO
    TITLE "3:cjc143_2368"
    INDEX 01 00:50:56
  TRACK 30 AUDIO
    TITLE "0:"
    INDEX 01 00:53:13
  TRACK 31 AUDIO
    TITLE "3:cjc143_2369"
    INDEX 01 00:54:19
  TRACK 32 AUDIO
    TITLE "0:"
    INDEX 01 00:56:74
  TRACK 33 AUDIO
    TITLE "3:cjc143_2370"
    INDEX 01 00:58:09
  TRACK 34 AUDIO
    TITLE "0:"
    INDEX 01 01:00:17
  TRACK 35 AUDIO
    TITLE "3:cjc143_2371"
    INDEX 01 01:01:21
  TRACK 36 AUDIO
    TITLE "0:"
    INDEX 01 01:03:37
  TRACK 37 AUDIO
    TITLE "3:cjc143_2372"
    INDEX 01 01:04:47
  TRACK 38 AUDIO
    TITLE "0:"
    INDEX 01 01:07:29
  TRACK 39 AUDIO
    TITLE "3:cjc143_2373"
    INDEX 01 01:08:40
  TRACK 40 AUDIO
    TITLE "0:"
    INDEX 01 01:10:69
  TRACK 41 AUDIO
    TITLE "3:cjc143_2374"
    INDEX 01 01:12:07
  TRACK 42 AUDIO
    TITLE "0:"
    INDEX 01 01:15:09
  TRACK 43 AUDIO
    TITLE "3:cjc143_2375"
    INDEX 01 01:16:22
  TRACK 44 AUDIO
    TITLE "0:"
    INDEX 01 01:18:62
  TRACK 45 AUDIO
    TITLE "3:cjc143_2376"
    INDEX 01 01:19:66
  TRACK 46 AUDIO
    TITLE "0:"
    INDEX 01 01:21:59
  TRACK 47 AUDIO
    TITLE "3:cjc143_2377"
    INDEX 01 01:22:66
  TRACK 48 AUDIO
    TITLE "0:"
    INDEX 01 01:26:58
  TRACK 49 AUDIO
    TITLE "3:cjc143_2378"
    INDEX 01 01:27:65
  TRACK 50 AUDIO
    TITLE "0:"
    INDEX 01 01:32:13
  TRACK 51 AUDIO
    TITLE "3:cjc143_2379"
    INDEX 01 01:33:21
  TRACK 52 AUDIO
    TITLE "0:"
    INDEX 01 01:35:35
  TRACK 53 AUDIO
    TITLE "3:cjc143_2380"
    INDEX 01 01:36:47
  TRACK 54 AUDIO
    TITLE "0:"
    INDEX 01 01:39:53
  TRACK 55 AUDIO
    TITLE "3:cjc143_2381"
    INDEX 01 01:40:74
  TRACK 56 AUDIO
    TITLE "0:"
    INDEX 01 01:43:09
  TRACK 57 AUDIO
    TITLE "3:cjc143_2382"
    INDEX 01 01:44:15
  TRACK 58 AUDIO
    TITLE "0:"
    INDEX 01 01:46:53
  TRACK 59 AUDIO
    TITLE "3:cjc143_2383"
    INDEX 01 01:47:64
  TRACK 60 AUDIO
    TITLE "0:"
    INDEX 01 01:50:58
  TRACK 61 AUDIO
    TITLE "3:cjc143_2384"
    INDEX 01 01:51:66
  TRACK 62 AUDIO
    TITLE "0:"
    INDEX 01 01:54:64
  TRACK 63 AUDIO
    TITLE "3:cjc143_2385"
    INDEX 01 01:55:73
  TRACK 64 AUDIO
    TITLE "0:"
    INDEX 01 01:58:52
  TRACK 65 AUDIO
    TITLE "3:cjc143_2386"
    INDEX 01 01:59:57
  TRACK 66 AUDIO
    TITLE "0:"
    INDEX 01 02:02:42
  TRACK 67 AUDIO
    TITLE "3:cjc143_2387"
    INDEX 01 02:03:51
  TRACK 68 AUDIO
    TITLE "0:"
    INDEX 01 02:07:37
  TRACK 69 AUDIO
    TITLE "3:cjc143_2388"
    INDEX 01 02:08:47
  TRACK 70 AUDIO
    TITLE "0:"
    INDEX 01 02:11:06
  TRACK 71 AUDIO
    TITLE "3:cjc143_2389"
    INDEX 01 02:12:13
  TRACK 72 AUDIO
    TITLE "0:"
    INDEX 01 02:14:16
  TRACK 73 AUDIO
    TITLE "3:cjc143_2390"
    INDEX 01 02:15:23
  TRACK 74 AUDIO
    TITLE "0:"
    INDEX 01 02:18:19
  TRACK 75 AUDIO
    TITLE "3:cjc143_2391"
    INDEX 01 02:19:27
  TRACK 76 AUDIO
    TITLE "0:"
    INDEX 01 02:22:07
  TRACK 77 AUDIO
    TITLE "3:cjc143_2392"
    INDEX 01 02:23:11
  TRACK 78 AUDIO
    TITLE "0:"
    INDEX 01 02:25:33
  TRACK 79 AUDIO
    TITLE "3:cjc143_2393"
    INDEX 01 02:26:41
  TRACK 80 AUDIO
    TITLE "0:"
    INDEX 01 02:29:06
  TRACK 81 AUDIO
    TITLE "3:cjc143_2394"
    INDEX 01 02:30:17
  TRACK 82 AUDIO
    TITLE "0:"
    INDEX 01 02:32:53
  TRACK 83 AUDIO
    TITLE "3:cjc143_2395"
    INDEX 01 02:33:66
  TRACK 84 AUDIO
    TITLE "0:"
    INDEX 01 02:37:38
  TRACK 85 AUDIO
    TITLE "3:cjc143_2396"
    INDEX 01 02:38:46
  TRACK 86 AUDIO
    TITLE "0:"
    INDEX 01 02:41:15
  TRACK 87 AUDIO
    TITLE "3:cjc143_2397"
    INDEX 01 02:42:22
  TRACK 88 AUDIO
    TITLE "0:"
    INDEX 01 02:44:66
  TRACK 89 AUDIO
    TITLE "3:cjc143_2398"
    INDEX 01 02:45:73
  TRACK 90 AUDIO
    TITLE "0:"
    INDEX 01 02:48:13
  TRACK 91 AUDIO
    TITLE "3:cjc143_2399"
    INDEX 01 02:49:20
  TRACK 92 AUDIO
    TITLE "0:"
    INDEX 01 02:52:46
  TRACK 93 AUDIO
    TITLE "3:cjc143_2400"
    INDEX 01 02:53:59
  TRACK 94 AUDIO
    TITLE "0:"
    INDEX 01 02:56:20
  TRACK 95 AUDIO
    TITLE "3:cjc143_2401"
    INDEX 01 02:57:31
  TRACK 96 AUDIO
    TITLE "0:"
    INDEX 01 02:59:44
  TRACK 97 AUDIO
    TITLE "3:cjc143_2402"
    INDEX 01 03:00:49
  TRACK 98 AUDIO
    TITLE "0:"
    INDEX 01 03:02:40
  TRACK 99 AUDIO
    TITLE "3:cjc143_2403"
    INDEX 01 03:03:50
  TRACK 100 AUDIO
    TITLE "0:"
    INDEX 01 03:05:52
  TRACK 101 AUDIO
    TITLE "3:cjc143_2404"
    INDEX 01 03:06:62
  TRACK 102 AUDIO
    TITLE "0:"
    INDEX 01 03:08:68
  TRACK 103 AUDIO
    TITLE "3:cjc143_2405"
    INDEX 01 03:10:01
  TRACK 104 AUDIO
    TITLE "0:"
    INDEX 01 03:12:41
  TRACK 105 AUDIO
    TITLE "3:cjc143_2406"
    INDEX 01 03:13:48
  TRACK 106 AUDIO
    TITLE "0:"
    INDEX 01 03:15:63
  TRACK 107 AUDIO
    TITLE "3:cjc143_2407"
    INDEX 01 03:16:70
  TRACK 108 AUDIO
    TITLE "0:"
    INDEX 01 03:19:21
  TRACK 109 AUDIO
    TITLE "3:cjc143_2408"
    INDEX 01 03:20:30
  TRACK 110 AUDIO
    TITLE "0:"
    INDEX 01 03:22:65
  TRACK 111 AUDIO
    TITLE "3:cjc143_2409"
    INDEX 01 03:23:68
  TRACK 112 AUDIO
    TITLE "0:"
    INDEX 01 03:25:57
  TRACK 113 AUDIO
    TITLE "3:cjc143_2410"
    INDEX 01 03:26:66
  TRACK 114 AUDIO
    TITLE "0:"
    INDEX 01 03:30:11
  TRACK 115 AUDIO
    TITLE "3:cjc143_2411"
    INDEX 01 03:31:20
  TRACK 116 AUDIO
    TITLE "0:"
    INDEX 01 03:33:53
  TRACK 117 AUDIO
    TITLE "3:cjc143_2412"
    INDEX 01 03:34:60
  TRACK 118 AUDIO
    TITLE "0:"
    INDEX 01 03:37:37
  TRACK 119 AUDIO
    TITLE "3:cjc143_2413"
    INDEX 01 03:38:44
  TRACK 120 AUDIO
    TITLE "0:"
    INDEX 01 03:41:21
  TRACK 121 AUDIO
    TITLE "3:cjc143_2414"
    INDEX 01 03:42:28
  TRACK 122 AUDIO
    TITLE "0:"
    INDEX 01 03:45:22
  TRACK 123 AUDIO
    TITLE "3:cjc143_2415"
    INDEX 01 03:46:32
  TRACK 124 AUDIO
    TITLE "0:"
    INDEX 01 03:48:50
  TRACK 125 AUDIO
    TITLE "3:cjc143_2416"
    INDEX 01 03:49:61
  TRACK 126 AUDIO
    TITLE "0:"
    INDEX 01 03:53:30
  TRACK 127 AUDIO
    TITLE "3:cjc143_2417"
    INDEX 01 03:54:39
  TRACK 128 AUDIO
    TITLE "0:"
    INDEX 01 03:57:24
  TRACK 129 AUDIO
    TITLE "3:cjc143_2418"
    INDEX 01 03:58:33
  TRACK 130 AUDIO
    TITLE "0:"
    INDEX 01 04:01:35
  TRACK 131 AUDIO
    TITLE "3:cjc143_2419"
    INDEX 01 04:02:46
  TRACK 132 AUDIO
    TITLE "0:"
    INDEX 01 04:04:69
  TRACK 133 AUDIO
    TITLE "3:cjc143_2420"
    INDEX 01 04:06:01
  TRACK 134 AUDIO
    TITLE "0:"
    INDEX 01 04:09:46
  TRACK 135 AUDIO
    TITLE "3:cjc143_2421"
    INDEX 01 04:10:60
  TRACK 136 AUDIO
    TITLE "0:"
    INDEX 01 04:12:74
  TRACK 137 AUDIO
    TITLE "3:cjc143_2422"
    INDEX 01 04:14:10
  TRACK 138 AUDIO
    TITLE "0:"
    INDEX 01 04:16:31
  TRACK 139 AUDIO
    TITLE "3:cjc143_2423"
    INDEX 01 04:17:42
  TRACK 140 AUDIO
    TITLE "0:"
    INDEX 01 04:20:50
  TRACK 141 AUDIO
    TITLE "3:cjc143_2424"
    INDEX 01 04:21:61
  TRACK 142 AUDIO
    TITLE "0:"
    INDEX 01 04:23:58
  TRACK 143 AUDIO
    TITLE "3:cjc143_2425"
    INDEX 01 04:24:68
  TRACK 144 AUDIO
    TITLE "0:"
    INDEX 01 04:27:40
  TRACK 145 AUDIO
    TITLE "3:cjc143_2426"
    INDEX 01 04:28:54
  TRACK 146 AUDIO
    TITLE "0:"
    INDEX 01 04:30:54
  TRACK 147 AUDIO
    TITLE "3:cjc143_2427"
    INDEX 01 04:31:60
  TRACK 148 AUDIO
    TITLE "0:"
    INDEX 01 04:34:21
  TRACK 149 AUDIO
    TITLE "3:cjc143_2428"
    INDEX 01 04:35:26
  TRACK 150 AUDIO
    TITLE "0:"
    INDEX 01 04:39:22
  TRACK 151 AUDIO
    TITLE "3:cjc143_2429"
    INDEX 01 04:40:35
  TRACK 152 AUDIO
    TITLE "0:"
    INDEX 01 04:43:08
  TRACK 153 AUDIO
    TITLE "3:cjc143_2430"
    INDEX 01 04:44:17
  TRACK 154 AUDIO
    TITLE "0:"
    INDEX 01 04:46:22
  TRACK 155 AUDIO
    TITLE "3:cjc143_2431"
    INDEX 01 04:47:31
  TRACK 156 AUDIO
    TITLE "0:"
    INDEX 01 04:49:34
  TRACK 157 AUDIO
    TITLE "3:cjc143_2432"
    INDEX 01 04:50:45
  TRACK 158 AUDIO
    TITLE "0:"
    INDEX 01 04:53:12
  TRACK 159 AUDIO
    TITLE "3:cjc143_2433"
    INDEX 01 04:54:22
  TRACK 160 AUDIO
    TITLE "0:"
    INDEX 01 04:57:20
  TRACK 161 AUDIO
    TITLE "3:cjc143_2434"
    INDEX 01 04:58:25
  TRACK 162 AUDIO
    TITLE "0:"
    INDEX 01 05:02:11
  TRACK 163 AUDIO
    TITLE "3:cjc143_2435"
    INDEX 01 05:03:23
  TRACK 164 AUDIO
    TITLE "0:"
    INDEX 01 05:05:18
